<svg width="22" height="30" viewBox="0 0 22 30" fill="none" xmlns="http://www.w3.org/2000/svg">
<path fill-rule="evenodd" clip-rule="evenodd" d="M2.41256 12.6114C0.969201 12.6114 0.667969 12.8864 0.667969 14.204V16.5929C0.667969 17.9105 0.969201 18.1855 2.41256 18.1855H5.90174V27.7411C5.90174 29.0587 6.20297 29.3337 7.64632 29.3337H11.1355C12.5789 29.3337 12.8801 29.0587 12.8801 27.7411V18.1855H16.7979C17.8926 18.1855 18.1746 17.9913 18.4754 17.0304L19.2231 14.6416C19.7382 12.9956 19.4208 12.6114 17.5456 12.6114H12.8801V8.62996C12.8801 7.75039 13.6612 7.03736 14.6247 7.03736H19.59C21.0334 7.03736 21.3346 6.76238 21.3346 5.44477V2.25958C21.3346 0.94198 21.0334 0.666992 19.59 0.666992H14.6247C9.80713 0.666992 5.90174 4.23213 5.90174 8.62996V12.6114H2.41256Z" fill="#171620"/>
</svg>
