<svg width="312" height="307" viewBox="0 0 312 307" fill="none" xmlns="http://www.w3.org/2000/svg">
<g opacity="0.5">
<path d="M230.565 57.8677C227.975 56.6303 221.8 56.3374 220.638 57.3477C220.188 57.7388 219.958 57.478 219.909 56.6647C219.784 54.9305 211.858 42.9296 210.137 41.8585C208.513 40.8999 205.538 41.6437 201.675 44.0145L198.841 45.7536L196.234 42.7543C193.92 40.0924 193.072 39.6443 189.638 39.4041C184.943 39.0758 182.379 40.9749 179.552 46.6578C177.439 51.1933 176.627 51.2415 172.781 46.8174C169.587 43.1432 165.808 41.2941 162.064 41.4548C159.307 41.6141 158.678 42.0288 154.692 46.1517L150.332 50.6005L148.456 49.2037C140.586 43.4067 129.818 47.3694 125.219 57.7524C124.131 60.2117 122.918 62.4512 122.506 62.8097C122.093 63.1682 119.932 63.3357 117.694 63.1088C112.588 62.6109 107.522 64.0528 104.077 66.9811C101.116 69.5558 100.541 70.7138 98.5592 77.8995L97.2682 82.7736L90.5808 84.2426C79.4225 86.7019 77.7273 88.3071 76.4235 98.3925C75.6859 103.904 75.4733 104.418 73.2875 105.463C67.9755 107.908 64.7119 113.773 64.0211 122.141L63.5361 127.565L60.6976 126.873C57.5407 126.194 53.1997 127.335 50.6878 129.519C49.7505 130.333 48.4621 132.638 47.8245 134.706C46.4988 138.557 46.6138 141.485 48.2732 149.982L49.2549 155.053L45.969 158.238C41.8481 162.281 41.6834 164.136 45.3138 170.129L48.1274 174.727L45.9615 178.979C41.0361 188.987 42.744 194.282 55.8716 209.989L64.8638 220.866L67.4277 220.481C68.8114 220.331 71.3889 219.209 73.1216 218.098L76.2593 216.029L73.1718 218.91C71.4471 220.409 70.1227 222.219 70.196 222.682C70.2595 223.285 72.5161 221.718 76.3778 218.361C79.7145 215.461 83.7647 212.466 85.4404 211.668C90.4118 209.058 109.694 194.139 124.578 181.2C132.592 174.366 138.08 169.924 137.366 171.072C135.051 174.466 113.932 192.956 104.597 199.557C95.627 205.972 93.0625 207.873 77.5639 220.029C70.227 225.748 69.0877 226.936 68.0556 229.611C67.1458 232.047 67.1802 233.071 68.6401 235.356C69.7139 237.121 71.3644 238.714 73.1278 239.683C75.5772 240.91 75.999 241.399 76.5381 243.761C77.3965 247.096 81.3093 251.593 85.1864 253.555C86.9221 254.415 90.7463 255.633 93.7679 256.231C96.827 256.797 101.11 258.472 103.307 259.788C108.875 263.241 113.376 264.33 117.259 263.193C119.097 262.582 122.234 262.554 124.205 263.079C127.6 263.88 139.289 262.407 144.534 260.415C145.723 260.04 148.735 260.252 151.331 260.891C153.895 261.493 158.505 262.028 161.528 262.098C164.589 262.136 168.713 262.566 170.651 263.054C176.474 264.377 179.361 263.381 186.109 257.515C191.283 253.017 192.172 251.915 193.638 248.074L195.309 243.791L198.981 242.64C204.089 241.095 210.357 235.581 213.019 230.239C214.995 226.151 215.034 226.118 222.245 221.692C226.216 219.294 231.314 216.376 233.65 215.201C241.72 211.082 243.372 208.593 243.347 200.387C243.401 196.588 243.612 196.075 246.297 193.939C252.631 188.959 253.534 187.647 255.299 181.045C256.249 177.52 257.59 173.985 258.242 173.221C259.681 171.772 262.192 167.088 262.158 166.065C262.117 165.639 264.319 162.343 267.009 158.623C271.529 152.389 271.91 151.466 272.144 147.116C272.599 136.584 265.749 107.125 262.977 107.495C262.336 107.591 262.292 106.708 262.643 105.218C263.091 103.841 263.275 101.246 263.094 99.2965C262.922 96.221 262.447 95.4488 259.024 92.0403C256.164 89.1289 253.94 87.7052 250.131 86.2768C245.669 84.6267 245.033 84.1264 244.208 81.8152C243.36 79.8543 242.351 78.6905 239.866 76.9673C236.779 74.7796 236.581 74.5572 236.669 71.7816C236.98 65.3242 234.387 59.6139 230.565 57.8677ZM233.397 69.7551C233.773 71.9294 233.621 74.1017 233.134 74.5254C232.647 74.9491 232.521 75.7167 232.954 76.0639C234.268 77.4234 236.469 78.2089 236.831 77.5652C237.507 76.4505 239.579 78.5334 240.463 80.9897L241.147 83.2918L233.185 89.8835C228.776 93.519 220.917 99.6925 215.605 103.652C210.292 107.612 204.905 112.098 203.606 113.556C202.372 115.09 200.406 116.535 199.283 116.984C196.72 117.896 196.719 117.897 210.196 106.445C232.165 87.8744 238.879 80.9847 237.804 78.2334C237.404 77.3956 237.151 77.4844 236.655 79.0343C236.231 80.061 234.003 82.7224 231.729 85.0283L227.534 89.1354L230.61 84.9472C234.197 79.9865 234.533 79.1671 233.458 77.9299C232.611 76.9551 230.536 78.4298 230.418 80.1118C230.284 82.5321 222.622 89.39 215.861 93.4244C211.637 95.9109 209.075 97.8095 208.726 98.771C208.387 99.5924 206.567 101.964 204.631 103.976L201.163 107.715L195.107 107.713C187.611 107.647 185.784 108.577 183.559 113.211L181.862 116.857L177.628 114.943C175.276 113.828 172.824 112.669 172.147 112.27C170.226 111.044 168.9 112.854 169.982 115.007C170.572 116.14 173.083 119.025 175.58 121.594L180.3 126.114L175.076 129.8C172.228 131.748 163.527 138.852 155.691 145.663C147.865 152.335 141.16 158.097 140.645 158.413C140.205 158.664 138.87 158.113 137.733 157.259C133.962 154.284 131.159 153.034 127.412 152.737C120.844 151.996 120.18 154.482 125.316 161.602C127.33 164.525 128.786 167.34 128.838 168.612C128.846 170.514 128.501 170.945 123.743 174.028C120.97 175.911 115.61 180.045 111.861 183.304L105.007 189.13L107.813 183.794C109.323 180.836 110.44 177.957 110.166 177.339C109.618 176.103 109.691 176.041 104.309 185.524C102.138 189.386 98.9455 193.741 96.6438 195.939C92.2458 200.421 92.8963 198.67 98.1846 192.033C102.056 187.021 104.761 182.103 104.012 181.241C103.686 180.866 102.987 181.276 102.433 182.152C98.5576 188.22 94.1941 194.251 93.0367 195.191C92.2869 195.843 92.9065 194.515 94.3199 192.43C96.8321 188.732 97.629 186.394 96.5354 186.423C96.26 186.334 94.6277 188.542 92.8621 191.13C91.1243 193.826 88.0795 197.592 86.1479 199.534C82.6594 203.093 82.6588 203.094 86.7702 197.677C91.2239 191.896 91.5347 189.98 87.5574 192.977C86.1849 193.973 83.4045 195.929 81.3719 197.301C78.6465 199.012 77.9261 199.77 78.7149 200.071C79.3033 200.218 81.2778 199.16 83.0024 197.661C85.842 195.324 86.0633 195.197 84.8423 197.049C81.3536 202.122 80.7435 202.257 74.8732 199.593C71.8028 198.181 68.3267 196.53 66.9642 195.871C65.1634 194.935 64.7764 194.942 65.3059 195.93C66.29 197.971 73.5902 202.354 78.8738 204.343L83.5472 206.007L79.3586 208.99C67.0258 217.67 65.9788 218.054 64.3789 214.245C63.6131 212.607 63.8788 210.796 65.1506 207.716C66.2006 205.289 66.806 203.183 66.5877 202.78C65.8381 201.918 62.8907 206.323 62.2269 209.27L61.6512 211.943L59.6493 210.852C57.0043 209.4 55.2137 207.336 56.5649 207.149C57.1027 207.01 57.8656 207.664 58.2746 208.361C58.7617 209.452 59.2087 209.59 59.8608 208.826C60.3629 208.192 60.3725 207.064 59.9733 206.226C59.5741 205.389 59.7779 203.5 60.404 202.1C61.0675 200.668 61.4835 199.253 61.2554 198.99C60.571 198.203 58.6298 200.286 58.165 202.401C57.6283 205.04 57.0737 205.39 55.8026 203.928C54.5316 202.466 55.7723 197.833 58.3203 194.631C59.2446 193.498 59.9363 192.173 59.8304 191.672C59.5601 189.998 56.0676 194.087 54.4942 197.956C53.5665 200.145 52.7303 201.53 52.4843 201.02C51.9368 199.785 54.1852 193.815 56.8589 189.319C58.0946 187.257 58.9072 185.234 58.6464 184.934C57.8968 184.072 55.2054 187.794 52.8706 192.983C51.7358 195.615 50.7581 196.991 50.4469 196.406C49.7464 194.843 53.687 186.349 56.6229 183.139L59.4457 180.027L61.8435 182.024C63.2792 183.145 65.5778 185.491 67.077 187.216C68.9999 189.428 70.6127 190.527 72.4576 190.832C75.8949 191.53 82.3635 188.672 85.4689 185.051C87.5425 182.59 88.0816 182.45 92.166 182.454C100.46 182.682 102.076 181.212 104.796 171.014C107.248 161.643 105.303 162.28 101.201 172.099C100.061 174.801 98.6405 177.484 97.9656 178.071C97.2908 178.658 94.5467 179.134 91.8787 179.018C87.2059 178.867 87.0252 178.893 82.9565 182.693C76.7834 188.388 70.4151 189.843 71.4019 185.299C71.7249 183.702 71.694 183.663 70.3184 184.201C68.9851 184.636 68.8758 184.138 69.4664 180.729C70.1207 176.408 68.4702 175.341 67.6432 179.615C66.9924 182.879 66.6948 183.138 65.2608 181.488C63.6964 179.689 63.6727 178.525 64.7374 175.888C65.5478 173.867 65.5096 173.9 63.5632 176.053C61.8417 178.01 61.336 178.186 60.4887 177.211C59.3806 175.937 59.9786 171.402 61.6919 169.057C62.913 167.205 62.3343 165.931 60.8346 167.235C59.5974 168.31 58.4851 171.12 58.0967 174.157L57.8212 176.568L57.0902 174.966C55.9382 172.808 57.2183 165.047 58.9642 162.739C60.6303 160.567 59.939 159.391 57.9894 161.085C56.3773 162.487 55.5131 165.278 54.9353 170.52C54.5876 173.982 54.5076 174.117 53.3995 172.842C50.7922 169.843 52.9154 159.638 57.4799 154.288C59.4784 151.892 59.0154 150.452 56.7284 152.44C54.029 154.786 50.5502 162.22 50.3262 166.43L50.0376 170.565L48.3369 167.699C46.1014 163.916 46.1102 163.776 49.072 161.202C52.8962 157.877 53.4446 155.557 52.1598 148.249C49.8542 134.39 52.9901 128.834 61.9458 131.185C64.9201 131.957 65.7566 132.612 67.6077 135.347C68.8216 137.122 70.4625 138.789 71.3915 139.101C72.6936 139.614 72.7903 140.254 72.2031 142.608C71.4741 145.48 72.0128 150.87 73.1471 151.266C73.4225 151.355 75.6985 154.577 78.0791 158.3C80.9013 162.758 83.289 165.883 84.9251 167.159C89.0367 170.299 89.551 168.996 85.7133 164.96C82.2569 161.514 82.3317 161.449 83.4942 158.924C84.7594 156.442 83.281 155.424 82.0207 157.836C81.1697 159.431 80.5003 158.433 80.3329 155.288C80.3233 153.914 80.7833 151.868 81.4826 150.931C82.3092 149.686 82.318 149.02 81.6172 148.971C80.9164 148.922 80.1314 149.605 79.3978 151.032C78.4245 152.866 78.1695 152.956 77.5747 151.893C76.9474 150.793 77.4681 149.418 81.3516 142.225C82.0477 140.83 81.9754 140.827 80.3878 141.878C79.3527 142.58 77.8896 144.379 77.0386 145.974C76.0131 148.05 75.5532 148.582 75.1768 147.922C75.0384 147.384 76.5812 144.463 78.769 141.376C83.1445 135.203 83.3351 132.997 79.1799 137.531L76.4786 140.405L74.1529 137.885C71.9269 135.476 71.8841 135.118 73.1998 132.921C73.8584 131.559 75.0567 129.991 75.8065 129.339C76.5563 128.687 76.9294 127.902 76.6361 127.565C75.8213 126.627 72.4592 129.879 71.3748 132.796C70.3623 135.19 70.2144 135.319 69.5643 134.041C68.9924 133.156 69.8167 131.452 72.5065 127.731C74.497 124.948 76.7554 122.327 77.4906 121.885C78.1882 121.476 78.4436 120.859 78.0199 120.372C77.0748 119.284 75.3512 120.783 71.5723 125.976C69.9715 128.224 68.5066 130.024 68.2963 130.009C68.1562 129.999 68.2232 128.559 68.4484 126.849C69.0242 123.65 73.7116 117.535 77.7247 115.033C79.8649 113.634 78.9733 111.776 76.7777 112.96C75.8274 113.457 73.7496 115.461 72.2058 117.395C70.6294 119.292 68.9592 121.008 68.5713 121.016C66.0743 121.475 70.386 111.21 73.721 108.838C75.281 107.679 76.1704 107.564 77.2606 108.591C78.9571 110.013 80.1728 109.219 79.1561 107.141C78.7569 106.303 78.8693 105.218 79.4316 104.729C79.994 104.241 80.6073 101.996 80.6941 99.7484C80.982 93.1133 82.0219 91.3536 86.2468 89.8532C88.1978 89.1445 91.4276 88.2457 93.4943 87.8973C95.4958 87.4738 97.8081 86.6486 98.5954 85.9642L100.02 84.7261L100.334 87.8094C100.497 89.511 101.641 92.2687 102.79 93.9688C104.101 95.8564 105.045 98.4586 105.189 100.441C105.561 105.185 108.557 116.732 110.193 119.523C111.727 122.271 114.928 123.833 119.315 124.034C120.937 124.006 122.304 124.595 122.573 125.283C122.958 126.331 123.145 126.168 123.739 124.73C124.097 123.629 124.336 122.697 124.239 122.584C124.076 122.397 122.108 121.869 119.895 121.292C115.734 120.367 114.611 119.303 117.574 119.228C118.845 119.176 119.033 119.014 118.446 118.339C118.022 117.851 116.808 117.591 115.775 117.765C113.6 118.141 112.011 116.692 111.804 114.107C111.679 112.373 111.763 112.169 114.105 111.91C117.303 111.5 117.229 110.05 113.943 110.208C110.76 110.408 110.444 108.379 113.446 107.743C116.668 106.983 116.668 105.469 113.418 106.122C111.745 106.392 110.232 106.39 110.037 106.165C109.287 105.303 110.253 104.069 112.311 103.332C115.095 102.295 114.121 101.101 111.211 101.919C108.512 102.751 108.277 101.113 110.918 99.607C112.055 98.9471 114.067 97.8563 115.205 97.1964C118.876 95.0586 116.545 94.6494 112.566 96.66C109.678 98.1835 108.789 98.2979 108.755 97.2744C108.703 96.0031 112.523 93.2753 116.917 91.3642C117.642 91.0628 118.029 90.5289 117.736 90.1915C117.084 89.4416 113.451 90.5591 110.168 92.6888C108.361 93.8653 107.042 94.0905 106.52 93.4906C105.868 92.7408 106.332 92.1403 108.73 90.5825C110.42 89.5739 113.24 88.0436 115.019 87.2876C116.792 86.6017 118.117 85.7791 117.856 85.4792C117.172 84.6918 113.72 85.7175 108.501 88.3456C103.98 90.5647 103.659 90.5804 104.95 88.734C105.659 87.6567 108.648 85.1898 111.524 83.3485C114.437 81.4746 116.887 79.6738 116.869 79.426C116.858 78.5801 112.101 80.6746 108.653 83.1449C102.583 87.3685 104.25 84.1422 110.65 79.2374C115.714 75.2956 116.289 74.6643 114.587 74.8271C113.564 74.8611 111.251 76.2132 109.537 77.5722L106.319 80.2375L108.573 77.2252C109.784 75.514 110.908 73.5496 111.06 72.8911C111.332 71.0087 110.335 70.1645 109.521 71.7274C108.75 73.1876 102.588 80.2559 102.359 79.9935C102.262 79.881 102.782 77.9808 103.457 75.8801C105.707 69.3822 109.635 67.087 117.686 67.2627C122.499 67.4231 122.635 67.5023 123.174 69.864C124.023 73.339 127.534 77.0006 133.667 80.9507L139.023 84.391L139.811 88.2478C140.408 91.2826 141.444 93.0811 144.009 96.1831L147.496 100.195L146.235 107.676C145.487 111.814 145.092 115.449 145.385 115.787C146.069 116.574 150.314 101.694 149.849 99.7952C149.702 98.8694 148.787 97.3612 147.874 96.3114C146.31 94.5118 146.401 94.2354 148.35 92.5407C151.237 90.0311 150.179 89.0426 147.064 91.2896L144.511 93.0482L145.583 90.7993C146.167 89.502 147.786 87.5021 149.033 86.2864C150.43 84.9404 151.031 83.8913 150.593 83.6142C149.679 83.0925 147.698 84.7486 145.22 87.9558L143.59 90.0964L143.228 87.7126C142.94 85.791 143.151 85.2783 144.389 85.1889C145.16 85.2428 145.931 84.8361 145.928 84.3781C145.962 83.8875 145.244 83.5904 144.431 83.6391C142.346 83.7399 138.307 79.5499 139.507 78.507C139.994 78.0833 140.139 77.4966 139.846 77.1592C139.585 76.8592 138.761 77.0484 138.087 77.635C137.412 78.2217 136.755 78.5952 136.625 78.4452C136.527 78.3327 135.848 77.9352 135.172 77.5358C133.884 76.8119 135.24 72.5403 137.414 70.65C138.089 70.0634 138.423 69.3118 138.13 68.9744C137.315 68.0371 134.593 70.7327 133.481 73.5424C132.628 75.6659 132.364 75.8958 131.314 75.2942C130.027 74.5704 131.029 72.3167 135.066 66.9649C136.464 65.0908 137.44 63.2555 137.244 63.0305C136.495 62.1682 133.634 65.3134 131.27 69.4088C128.784 73.7422 127.894 73.8575 128.673 69.757C129.272 66.7353 131.462 63.1204 135.063 59.4636C136.325 58.0376 137.302 56.6615 137.154 56.2638C136.657 55.3135 132.716 58.2787 130.855 61.2121C128.343 64.9099 127.36 62.8686 129.631 58.5906C133.359 51.5975 141.442 48.323 146.473 51.9144C150.031 54.4168 151.709 54.0764 155.935 49.5477C162.044 43.2493 164.22 43.3325 171.816 50.0258C173.503 51.5875 175.398 53.1649 176.107 53.6018C176.956 54.0485 177.019 54.6521 176.42 55.1735C175.145 56.2816 175.921 59.2932 178.876 64.3593L181.397 68.6191L178.375 74.0759C176.716 77.1642 175.237 80.1609 175.113 80.9269C174.723 82.9772 172.005 87.1176 169.253 89.707C167.706 91.1834 167.066 92.266 167.462 92.6459C167.933 92.9605 167.982 94.7614 167.747 96.6112C167.474 98.4937 167.547 100.471 167.971 100.958C168.818 101.933 170.595 100.718 170.337 99.3619C170.264 98.899 169.815 98.7625 169.366 99.1536C168.953 99.5121 169.044 98.2485 169.494 96.3433C170.534 92.5427 173.131 89.6274 174.239 90.9021C174.662 91.3895 175.924 91.4772 177.113 91.1025C179.597 90.3255 179.425 89.7505 176.524 89.442C174.674 89.207 174.611 89.1301 175.924 87.9895C176.673 87.3376 178.885 86.4023 180.854 85.9414C185.265 84.8061 185.614 83.8443 181.44 84.1158C177.116 84.5177 177.953 82.6049 182.739 81.1437C187.384 79.6727 188.739 77.902 184.291 79.0699C182.43 79.5031 180.793 79.7412 180.532 79.4413C179.718 78.504 183.408 76.0855 187.258 74.911C189.307 74.3148 191.221 73.6383 191.596 73.3124C192.758 72.3021 189.982 72.2144 186.67 73.2504L183.148 74.2715L184.351 72.1726C185.212 70.4369 186.247 69.734 189.339 68.8234C191.538 68.0969 193.246 67.3365 193.303 67.0236C193.399 66.15 189.755 66.4213 187.747 67.4429C185.599 68.4547 183.451 66.4385 185.1 65.0045C185.7 64.4831 188.078 63.2059 190.334 62.1664C192.557 61.0894 194.393 60.0199 194.418 59.6695C194.509 58.866 189.949 60.1317 186.232 61.9142C180.985 64.4348 181.076 62.6447 186.336 58.9278C188.851 57.2022 191.547 55.3854 192.567 54.8934C193.48 54.429 193.984 53.7939 193.658 53.419C193.332 53.0441 191.196 53.8478 188.995 55.1024C186.72 56.4222 183.965 58.093 182.865 58.7203C181.474 59.4682 180.628 59.48 180.154 58.7074C179.591 57.6821 180.169 56.982 183.267 54.4872C185.314 52.905 188.441 50.9762 190.14 50.3555C191.806 49.6973 192.888 48.8219 192.628 48.522C191.878 47.6597 187.206 49.4834 182.893 52.2453C179.427 54.4679 179.281 54.5286 180.54 52.6447C183.103 49.2322 188.599 44.6518 190.928 44.0752C192.752 43.6745 193.544 43.9733 194.931 45.7957C198.118 50.0681 199.32 50.4717 201.907 48.2229C203.144 47.1474 205.196 46.0214 206.417 45.6842C208.279 45.251 208.824 45.501 210.722 48.0634C211.984 49.6657 213.606 52.139 214.391 53.4968C215.776 55.8472 215.651 56.1536 213 59.3134C210.73 62.0773 210.163 63.6227 209.762 67.8554C209.496 70.6538 209.108 73.1624 208.846 73.3906C208.584 73.6187 208.675 74.3292 208.874 75.0121C209.198 75.9151 208.451 77.0247 206.239 78.9476C203.915 80.9682 202.724 82.8593 201.45 86.4676C200.224 89.9032 198.759 92.2298 196.378 94.5634C194.591 96.4456 192.933 98.0183 192.816 98.1861C192.703 98.2839 193.317 98.5402 194.191 98.6365C195.064 98.7328 195.57 99.083 195.383 99.2459C195.12 99.4741 195.76 99.9051 196.722 100.254C197.683 100.603 198.883 100.548 199.445 100.059C200.232 99.3746 200.069 99.1878 198.817 98.9594C197.878 98.7881 197.271 98.3939 197.258 98.0761C197.35 97.2726 203.222 94.4059 204.324 94.7646C204.837 94.9766 205.63 94.6821 206.193 94.1932C207.055 93.4437 206.959 93.3296 205.109 93.0946C203.082 92.8824 203.05 92.8441 203.886 91.4588C204.408 90.5446 206.259 89.7257 208.756 89.2665C213.044 88.3691 213.992 87.94 213.308 87.1526C213.047 86.8527 211.275 87.011 209.171 87.3921C205.63 88.1657 204.211 87.2933 206.123 85.6312C206.61 85.2075 208.801 84.6199 210.9 84.3089C216.244 83.415 216.67 81.8599 211.388 82.3709C207.204 82.7825 207.03 82.7361 208.642 81.3347C209.505 80.5851 212.54 79.4606 215.364 78.8482C218.114 78.3011 220.491 77.5517 220.45 77.1263C220.471 76.3179 220.687 76.2623 215.852 76.9102C212.477 77.3432 212.241 77.2195 212.834 75.7821C213.348 74.4799 214.404 73.9566 217.967 73.3606C220.492 73.009 222.543 72.4108 222.557 72.2006C222.597 71.6399 217.073 71.5704 214.501 72.0949C213.215 72.3571 212.911 72.1608 213.064 70.9743C213.078 69.778 214.209 69.1889 218.798 68.0308C225.757 66.1935 225.487 65.0464 218.416 66.4534C215.634 66.9631 213.328 67.1903 213.353 66.8399C213.431 65.7186 217.853 63.9157 222.121 63.2987C227.606 62.4145 228.235 61.9996 224.357 61.5524C221.176 61.2243 222.77 60.5629 226.742 60.6646C229.762 60.2771 232.527 64.0603 233.397 69.7551ZM259.576 100.248C259.552 102.113 258.674 105.575 257.596 107.894C256.311 110.656 255.871 112.948 256.244 114.664C256.604 116.063 256.62 117.825 256.263 118.399C255.412 119.995 251.861 119.922 248.39 118.2C245.605 116.738 245.508 116.624 246.633 115.647C248.058 114.408 253.332 105.94 253.922 104.044C254.783 100.795 252.583 103.036 249.618 108.181C246.605 113.499 243.717 116.536 242.706 115.374C242.478 115.112 243.519 112.824 245.07 110.292C246.648 107.867 247.621 105.507 247.328 105.169C247.002 104.794 246.464 104.933 246.215 105.479C245.928 106.057 244.395 108.377 242.859 110.699C240.37 114.575 239.769 115.097 235.645 117.168C230.619 119.563 224.982 124.134 225.796 125.071C226.285 125.633 227.881 124.971 236.03 120.716C240.089 118.57 240.156 118.644 246.013 120.99C250.396 122.776 252.655 123.181 254.666 122.618C256.177 122.16 257.655 122.192 257.84 122.557C258.054 123.03 257.262 125.759 256.215 128.644C254.452 133.204 254.365 134.465 255.448 137.604C257.755 143.892 255.36 152.491 251.271 152.557C249.612 152.617 237.977 145.748 238.013 144.73C238.103 144.454 240.524 142.547 243.484 140.501C251.067 135.291 249.2 134.808 241.239 139.885C237.848 142.042 234.225 144.008 233.191 144.182C232.191 144.393 230.119 145.339 228.541 146.249C226.931 147.123 229.639 144.637 234.526 140.718C241.652 134.984 243.164 133.538 242.01 133.422C240.258 133.3 221.701 148.905 222.553 149.809C223.117 150.306 222.717 152.497 221.93 153.181C220.955 154.029 218.943 150.578 219.597 149.285C219.931 148.534 223.929 144.203 228.403 139.656C232.876 135.11 236.276 131.298 235.828 131.161C234.829 130.845 228.745 136.265 222.203 143.202C219.342 146.347 216.743 148.804 216.495 148.822C216.285 148.808 218.908 145.54 222.398 141.453C225.921 137.403 229.392 133.069 230.171 131.997C232.656 128.192 226.257 134.083 219.858 141.489C214.469 147.556 213.645 148.272 209.836 149.872L205.774 151.559L208.4 147.237C209.865 144.91 210.862 142.727 210.601 142.427C209.852 141.564 208.479 143.087 206.278 147.37C205.14 149.544 202.906 152.802 201.232 154.587C196.082 160.248 197.405 160.481 206.229 155.64C213.013 151.783 214.185 151.62 217.173 154.223C220.57 156.996 222.743 157.148 224.644 154.64C227.521 150.756 231.353 147.821 233.638 147.875C234.834 147.888 238.147 149.352 240.908 151.165C247.824 155.487 250.363 156.44 253.277 155.552L255.693 154.768L256.191 157.692C256.838 161.54 255.614 167.475 253.702 169.137C252.84 169.887 252.139 170.824 252.255 171.185C252.328 171.648 251.644 172.374 250.628 172.796C249.093 173.604 249.125 173.642 251.078 173.92C253.03 174.197 253.049 174.444 251.175 180.088C249.424 185.494 248.939 186.376 244.323 190.455C241.721 192.914 238.524 196.352 237.387 197.998C236.251 199.644 234.688 201.331 233.785 201.655C232.002 202.481 229.212 201.089 226.637 198.128C225.04 196.29 224.99 196.005 226.323 195.57C228.61 195.096 234.121 191.359 234.859 189.861C236.232 187.351 234.561 187.553 231.3 190.388C226.801 194.299 223.548 195.481 221.511 193.895C219.712 192.431 219.76 192.258 224.285 190.497C228.159 188.972 228.938 188.426 228.319 187.714C228.058 187.414 225.933 188.076 223.542 189.036C221.216 190.07 217.984 190.971 216.368 190.928C214.708 190.988 212.042 191.332 210.541 191.649L207.603 192.359L202.161 186.098C197.565 180.812 195.843 179.281 191.159 176.77C185.165 173.358 181.24 173.084 180.455 175.741C179.756 178.192 180.666 179.244 182.073 177.757C183.073 176.56 184.078 176.805 188.734 179.208C193.39 181.611 194.988 182.92 199.649 188.282C202.722 191.666 205.746 194.764 206.422 195.164C207.173 195.498 209.221 195.429 211.055 194.888C215.456 193.893 217.237 194.583 223.617 200.029C229.801 205.25 232.949 206.068 236.211 203.233C238.723 201.049 239.612 201.922 238.255 205.208C237.355 207.504 236.681 208.09 231.808 210.812C228.872 212.509 225.031 215.058 223.231 216.622C221.506 218.122 218.792 219.691 217.174 220.177C214.372 220.967 213.396 221.815 211.015 225.662C210.301 226.81 209.903 226.958 209.19 226.063C208.619 225.178 207.455 225.203 205.504 225.911L202.717 227.017L206.203 223.987C211.424 219.317 210.027 218.622 204.368 223.015C201.608 225.216 198.471 227.286 197.455 227.707C196.08 228.245 195.847 228.579 196.571 228.805C197.295 229.032 197.204 229.309 196.333 229.67C195.145 230.045 189.725 228.504 190.399 227.917C190.512 227.819 191.994 227.255 193.612 226.77C197.037 225.636 202.261 221.424 202.009 219.998C201.945 219.394 200.703 220.08 198.715 221.807C196.991 223.306 194.338 224.954 192.752 225.477C191.241 225.935 189.89 226.649 189.93 227.074C189.906 227.425 189.455 227.29 188.967 226.727C188.217 225.865 188.454 225.527 190.223 224.911C193.007 223.873 197.469 219.995 196.297 219.631C195.849 219.494 194.461 220.174 193.374 221.119C190.037 224.02 186.697 224.948 184.823 223.55C183.56 222.475 183.477 222.152 184.563 221.735C185.353 221.509 186.852 220.732 187.99 220.072C190.991 218.451 188.876 217.986 185.217 219.455C183.616 220.189 181.409 220.528 180.292 220.379C179.078 220.118 177.093 220.791 175.28 222.037C171.182 224.744 169.644 225.094 167.682 223.442C166.209 222.353 166.223 222.143 167.946 221.172C169.744 220.136 169.746 220.134 167.801 220.245C163.73 220.559 163.177 220.381 162.727 219.258C162.501 218.468 161.28 218.344 159.596 218.755C156.449 219.45 155.113 220.414 156.56 220.867C157.246 221.127 156.185 222.181 152.962 224.456C147 228.652 142.688 229.372 137.859 226.921C133.847 224.88 132.211 225.118 135.19 227.333C140.859 231.356 146.408 231.075 154.742 226.2C160.801 222.644 162.75 222.464 165.259 225.351C167.573 228.013 171.489 227.9 175.62 225.231C179.465 222.612 179.531 222.687 184.675 227.166C191.143 232.865 197.258 234.066 203.204 230.609C204.482 229.959 205.891 229.458 206.442 229.638C207.03 229.784 206.867 230.124 205.996 230.486C204.986 230.837 204.922 231.222 205.719 231.912C207.518 233.375 203.968 236.33 198.199 238.25C193.624 239.726 189.713 242.271 190.527 243.208C191.277 244.071 187.966 250.108 184.975 253.103C180.942 257.399 176.844 259.118 171.293 258.941C168.835 258.84 164.884 258.917 162.445 259.063C159.972 259.172 155.504 258.646 152.427 257.833C149.35 257.019 145.644 256.62 144.17 257.045C139.872 258.083 136.511 257.779 130.475 255.983C123.855 253.971 121.02 252.223 121.908 250.595C122.712 249.172 124.296 249.704 126.069 252.046C127.13 253.494 128.577 253.947 133.137 254.195C141.169 254.651 142.267 253.039 134.422 252.42C128.227 251.881 125.88 250.697 129.463 249.82C132.11 249.231 130.887 248.583 127.148 248.673C125.423 248.658 123.454 248.132 122.792 247.523C122.205 246.848 119.709 241.251 117.252 235.093L112.718 223.895L115.956 221.409C117.779 220.022 121.482 217.922 124.239 216.776C128.16 215.079 129.937 213.864 132.535 210.947C136.61 206.549 138.599 202.78 138.172 200.32C137.869 198.609 137.982 198.51 139.997 198.405C144.732 198.172 147.715 198.804 150.326 200.748C161.768 208.837 164.351 209.158 173.976 203.951C175.141 203.399 176.308 203.306 176.764 203.831C177.22 204.356 178.598 204.804 179.859 204.892C181.892 205.034 182.27 204.706 181.039 203.669C180.275 203.017 180.892 202.744 184.69 201.812C189.46 200.561 188.198 199.486 183.232 200.512C181.02 200.921 177.981 201.062 176.481 200.851L173.794 200.488L175.771 199.428C176.974 198.843 179.116 197.903 180.669 197.342C184.491 196.06 184.341 195.204 180.455 195.883C176.532 196.595 170.235 200.028 168.587 202.448C166.874 204.793 163.106 205.303 159.668 203.619C158.17 202.88 156.816 202.083 156.653 201.896C156.164 201.333 162.065 196.532 164.756 195.312C166.717 194.463 167.1 193.999 166.456 193.637C165.379 192.928 159.799 195.672 156.585 198.335C154.87 199.694 153.999 200.056 153.412 199.381C152.467 198.294 156.691 194.292 160.496 192.762C161.909 192.192 163.122 191.467 163.081 191.041C163.245 189.715 157.037 192.413 154.037 195.02C151.263 197.432 150.686 197.604 148.591 196.858C142.971 194.634 137.534 196.333 135.154 201.167C134.453 202.632 131.766 205.823 129.23 208.357C126.768 210.826 125.229 212.164 125.89 211.26C130.264 205.615 134.806 196.072 133.391 195.656C132.803 195.509 132.019 196.652 131.218 198.532C128.717 204.59 125.442 209.149 121.267 212.448L117.241 215.619L120.233 211.636C124.119 206.414 126.783 201.532 126.733 199.732C126.66 197.755 126.429 198.022 122.585 204.655C120.47 208.204 117.759 211.746 115.462 213.875C111.853 217.144 111.16 218.47 113.462 217.785C114 217.647 113.69 218.048 112.59 218.675C110.164 220.125 108.68 223.258 109.392 225.667C109.604 226.668 111.859 232.146 114.355 237.743C117.064 243.813 118.721 248.823 118.558 250.15C118.155 253.397 121.283 256.536 126.731 258.184L131.217 259.485L128.471 259.963C127.045 260.216 123.804 260.268 121.277 260.162C118.786 260.023 115.44 260.036 113.818 260.063C111.916 260.071 109.029 259.026 105.512 256.949C102.639 255.234 97.6787 253.161 94.6343 252.385C91.6224 251.646 88.3565 250.536 87.3494 249.831C85.7034 248.695 85.7005 248.698 87.6074 248.62C101.362 248.314 104.19 248.159 104.197 247.561C104.26 246.65 99.2474 246.334 90.8389 246.732C85.8564 246.982 83.2053 246.654 82.4231 245.754C81.2726 244.582 81.9583 244.315 88.4598 243.995C94.9287 243.638 97.3555 243.174 96.6711 242.386C96.5733 242.274 93.124 242.244 88.9972 242.343C84.903 242.479 81.7561 242.187 82.0006 241.711C82.4 241.035 82.2027 240.811 81.1287 240.56C80.3578 240.506 79.6652 239.858 79.5691 239.217C79.3704 238.534 81.7395 238.384 86.2753 238.983C95.6695 240.097 95.3557 238.527 85.8734 237.16C81.2024 236.481 78.2401 235.568 77.9061 234.805C77.2952 232.966 76.1727 234.403 76.394 236.777C76.6723 238.839 76.6743 238.838 74.2052 237.89C71.0223 236.576 70.2061 234.126 71.8055 230.893C73.3576 227.832 74.8298 226.421 84.7519 218.98L92.1386 213.547L91.4749 218.994C90.3994 227.828 93.1695 237.597 97.3318 239.508C100.164 240.798 101.05 239.699 98.682 237.808C95.9687 235.822 94.0343 228.223 94.4673 221.527C94.706 217.107 94.9334 216.383 96.335 216.481C97.3211 216.479 98.6365 215.797 99.6357 214.599C101.057 212.903 101.146 212.628 99.8601 212.89C98.9995 213.112 98.0452 213.678 97.7208 214.289C96.6725 216.188 95.1524 214.284 95.9399 212.085C96.6557 210.41 98.4181 208.878 105.613 203.676C110.363 200.206 118.87 193.338 124.418 188.514C129.902 183.616 134.79 179.696 135.383 179.772C135.841 179.769 138.519 182.246 141.239 185.148C145.132 189.399 146.47 190.408 147.821 190.221C149.996 189.845 150.437 185.051 148.809 178.106L147.69 172.958L151.49 168.996C153.652 166.788 157.776 163.203 160.713 160.979C165.95 157.084 168.885 153.875 168.07 152.938C167.842 152.675 163.022 156.668 157.276 161.795C147.068 170.8 146.879 170.964 146.848 168.884C146.985 166.922 148.041 165.938 164.913 151.272C175.55 142.157 183.73 135.441 185.105 134.904C187.239 134.102 187.506 134.331 190.668 137.967C194.839 142.766 196.125 143.492 197.85 141.992C199.274 140.754 199.94 136.292 199.702 129.127C199.483 123.196 201.037 120.594 208.878 113.712C222.239 101.9 241.399 86.7584 242.881 86.7211C244.89 86.6856 247.087 87.4751 251.826 90.201C257.279 93.2937 259.44 96.1541 259.576 100.248ZM216.221 62.1088C213.924 62.7229 213.747 62.2189 215.584 60.6219C216.634 59.7094 217.235 59.6473 217.56 60.5503C217.846 61.4859 217.507 61.8466 216.221 62.1088ZM266.732 129.835C269.539 146.089 269.427 149.214 265.898 153.862C264.452 155.909 262.635 158.212 262.043 159.122L260.908 160.767L259.911 155.907C259.386 153.335 259.473 150.034 259.95 148.764C261.49 144.858 261.475 141.58 260.09 137.716C259.029 134.754 259.096 133.314 260.302 130.159C262.177 125.501 262.339 122.662 260.905 116.47C260.072 112.785 260.145 111.734 261.168 111.7C263.215 111.632 264.029 114.611 266.732 129.835ZM185.803 44.3835C182.965 46.1922 182.75 46.2477 183.966 44.4664C184.643 43.3517 185.94 42.4211 187.156 42.154C189.841 41.5319 189.554 42.1104 185.803 44.3835ZM214.562 100.412C209.947 103.962 207.423 105.828 208.965 104.422C210.437 103.01 211.64 101.438 211.689 100.737C211.738 100.036 214.089 98.1237 218.047 95.4073C226.655 89.6358 224.771 92.3929 214.562 100.412ZM200.729 112.436C199.98 113.088 199.101 113.062 198.579 112.462C198.09 111.9 196.689 111.275 195.54 111.089C194.289 110.86 195.205 110.854 197.462 110.8C199.71 110.887 201.67 111.026 201.768 111.139C201.898 111.289 201.404 111.849 200.729 112.436ZM195.867 113.964C190.78 114.7 189.33 114.776 189.78 114.385C190.942 113.375 197.555 112.497 198.24 113.284C198.337 113.396 197.261 113.674 195.867 113.964ZM190.269 113.433C186.657 116.244 185.634 116.278 186.843 113.581C187.629 111.91 188.259 111.494 190.358 111.183C191.742 111.034 192.98 110.945 192.98 110.945C193.077 111.058 191.839 112.134 190.269 113.433ZM194.836 118.612C193.711 119.59 191.205 122.756 189.139 125.605C186.392 129.639 184.943 131.228 182.949 132.039C181.601 132.684 175.191 137.73 168.64 143.293C159.792 150.984 157.417 152.72 158.896 150.71C160.459 148.496 175.316 135.91 181.912 131.23C182.652 130.718 182.911 130.032 182.478 129.685C181.941 129.295 182.243 128.506 183.031 127.821C184.08 126.909 184.291 126.923 184.002 128.03C183.238 130.406 184.574 129.441 187.939 125.134C193.2 118.389 196.511 114.853 196.647 115.919C196.823 116.424 195.961 117.634 194.836 118.612ZM190.69 128.602C189.274 131.214 188.55 131.975 187.964 131.3C187.442 130.7 194.188 121.348 196.427 119.533C197.177 118.881 196.518 120.244 194.852 122.416C193.148 124.621 191.301 127.412 190.69 128.602ZM185.107 125.359C183.845 125.27 185.447 122.496 187.484 121.054C188.744 120.156 189.329 119.318 188.923 119.079C188.485 118.802 186.802 119.738 185.33 121.149C183.005 123.17 182.281 123.471 181.106 122.649C178.648 121.034 177.043 118.808 178.147 118.639C178.75 118.576 179.315 119.006 179.519 119.618C179.82 120.344 180.743 120.266 182.311 119.495C183.626 118.813 186.704 117.585 189.281 116.991L193.944 115.767L189.8 120.686C187.479 123.165 185.382 125.448 185.107 125.359ZM195.672 138.422C195.559 138.52 194.919 138.089 194.398 137.489C193.811 136.814 193.722 135.575 194.234 134.801C194.746 134.027 194.82 132.976 194.461 132.563C194.103 132.151 194.192 130.889 194.728 129.764C195.264 128.64 195.277 127.444 194.881 127.064C194.443 126.787 194.506 125.877 195.008 125.243C195.632 124.371 195.995 126.228 196.007 131.088C195.878 134.952 195.784 138.325 195.672 138.422ZM127.419 66.5689C126.933 67.9786 126.168 68.8415 125.907 68.5416C125.157 67.6793 126.234 63.8473 127.235 63.6355C128.413 63.401 128.521 63.8994 127.419 66.5689ZM173.385 135.877C172.5 136.449 172.854 135.878 174.204 134.705C175.488 133.456 176.218 133.085 175.856 133.729C175.317 134.395 174.233 135.338 173.385 135.877ZM160.232 146.192C159.469 146.526 159.71 146.119 160.722 145.239C161.772 144.327 162.282 144.08 162.07 144.594C161.788 145.102 160.925 145.853 160.232 146.192ZM154.936 151.915C154.051 152.487 154.409 151.912 155.758 150.739C157.043 149.491 157.81 149.087 157.411 149.763C156.871 150.43 155.783 151.376 154.936 151.915ZM151.623 158.02C150.738 158.592 151.208 157.919 152.746 156.583C154.283 155.247 154.98 154.838 154.398 155.608C153.671 156.437 152.433 157.513 151.623 158.02ZM140.142 165.104C139.506 165.13 137.102 167.286 134.734 169.937C132.36 172.658 129.418 175.413 128.308 176.181C126.87 177.101 127.106 176.765 129.098 174.967C130.683 173.458 132.301 171.459 132.65 170.498C133.089 169.261 135.498 167.034 140.286 163.531C146.98 158.436 147.12 158.446 144.249 161.731C142.575 163.516 140.778 165.078 140.142 165.104ZM138.951 173.051L135.199 176.839L138.56 172.601C140.381 170.228 142.139 167.778 142.333 167.017C142.696 165.846 142.729 165.883 142.724 167.467C142.753 168.561 141.337 170.647 138.951 173.051ZM134.039 165.736C132.966 166.471 133.545 165.771 135.194 164.337C136.919 162.837 137.766 162.298 137.114 163.063C136.387 163.892 135.036 165.066 134.039 165.736ZM129.584 161.973C128.258 161.809 129.111 160.673 131.494 159.326L134.019 157.986L132.157 159.934C131.055 161.089 129.972 161.965 129.584 161.973ZM133.956 162.912C132.793 163.922 131.589 164.508 131.296 164.171C131.035 163.871 131.751 162.723 132.913 161.712C134.075 160.702 135.312 160.153 135.572 160.453C135.866 160.791 135.118 161.902 133.956 162.912ZM130.208 158.6C128.858 159.774 128.442 159.675 126.943 157.95L125.26 155.859L128.22 156.313C132.022 156.826 132.12 156.938 130.208 158.6ZM142.13 175.421C141.206 176.554 140.154 177.007 139.543 176.683C138.932 176.358 138.972 175.797 139.609 175.243C140.172 174.754 141.093 173.624 141.755 172.72C142.544 171.507 142.87 171.422 143.221 172.432C143.458 173.082 143.007 174.461 142.13 175.421ZM144.179 179.893C143.729 180.284 143.649 180.881 143.975 181.256C144.236 181.555 144.636 181.405 144.88 180.929C145.027 180.341 145.279 180.78 145.443 181.954C145.966 185.054 144.977 185.057 142.688 182.045C140.79 179.483 140.783 179.094 142.219 177.187C143.73 175.215 143.869 175.226 144.442 177.097C144.752 178.211 144.667 179.47 144.179 179.893ZM109.131 192.128C105.885 194.225 106.618 193.324 114.196 186.671C119.108 182.401 123.441 178.832 123.964 178.904C125.301 178.927 113.579 189.446 109.131 192.128ZM88.9281 199.553C88.1653 199.887 88.5522 199.353 89.7145 198.342C90.8767 197.332 91.462 197.021 91.0626 197.697C90.5605 198.331 89.5882 199.176 88.9281 199.553ZM92.2602 205.279C91.3751 205.851 91.7295 205.279 93.0792 204.106C94.3637 202.858 95.0972 202.484 94.7352 203.127C94.2657 203.799 93.1404 204.777 92.2602 205.279ZM86.8629 203.388C85.7416 203.31 86.1527 201.965 87.4289 201.843C88.4296 201.632 88.5274 201.744 88.0807 202.593C87.7661 203.064 87.2133 203.413 86.8629 203.388ZM87.4624 208.396C86.812 208.633 86.8387 208.28 87.5136 207.694C88.1232 207.032 88.661 206.894 88.5615 207.309C88.537 207.66 88.0378 208.225 87.4624 208.396ZM50.5507 189.405C49.5855 191.626 48.5624 193.174 48.3669 192.949C47.5521 192.011 47.9215 184.713 48.8541 182.454C50.8938 177.456 51.5272 176.971 54.7672 177.972L57.7646 178.921L55.0359 182.149C53.5394 183.911 51.5159 187.183 50.5507 189.405Z" fill="url(#paint0_linear_506_5081)"/>
<path d="M185.624 94.2411C182.475 96.9788 181.163 103.648 183.249 106.047C184.162 107.097 185.032 107.723 185.22 107.56C185.445 107.364 185.607 105.051 185.648 102.448C185.672 99.5971 186.325 96.791 187.147 95.616C189.132 92.9026 188.173 92.0249 185.624 94.2411Z" fill="url(#paint1_linear_506_5081)"/>
<path d="M158.1 65.3737C154.141 68.6181 150.243 78.0621 152.554 78.7519C153.067 78.9638 154.338 81.4139 155.333 84.3005C156.329 87.1871 158.491 92.0213 160.089 94.8445C164.401 102.681 165.309 106.302 165.066 116.32C164.76 127.25 165.252 129.785 167.284 129.927C168.373 129.968 168.646 129.599 168.464 128.178C168.252 127.177 168.213 122.208 168.356 117.147C168.68 107.979 167.526 100.294 165.44 97.8943C164.854 97.2194 164.658 96.0075 164.894 95.1437C165.398 93.9817 165.18 93.5789 163.956 93.4581C162.148 93.1204 162.079 92.0614 163.804 90.5622C164.554 89.9104 164.967 88.564 164.83 87.4981C164.693 86.4321 164.917 85.2506 165.479 84.7618C167.129 83.3278 164.691 83.4064 162.163 84.8142C160.838 85.6371 159.376 85.9199 159.018 85.5075C158.171 84.5327 162.146 79.0364 164.482 77.8616C165.582 77.2343 165.708 76.9271 164.967 76.4527C164.258 76.0158 162.943 76.6982 160.768 78.5884C158.969 80.1528 157.392 81.063 157.248 80.5952C157.1 80.1975 158.626 77.4887 160.659 74.6026C162.659 71.6789 164.147 69.069 163.886 68.769C163.235 68.0192 162.548 68.7474 158.747 73.7635C157.071 76.076 155.333 77.7842 154.95 77.7222C153.713 77.2836 154.725 73.3758 157.391 68.4916C159.572 64.489 159.675 64.0049 158.1 65.3737ZM162.392 89.6178C161.642 90.2696 161.156 90.1651 160.79 89.3648C160.628 88.6492 160.913 87.6122 161.513 87.0907C162.262 86.4389 162.748 86.5434 163.115 87.3437C163.313 88.0267 163.029 89.0637 162.392 89.6178Z" fill="url(#paint2_linear_506_5081)"/>
<path d="M171.148 92.8048C170.66 93.2285 170.657 93.7578 171.106 93.8948C171.619 94.1068 172.23 93.9708 172.605 93.6449C172.904 93.3842 172.937 92.8955 172.643 92.558C172.383 92.2581 171.673 92.3485 171.148 92.8048Z" fill="url(#paint3_linear_506_5081)"/>
<path d="M148.121 122.495C148.979 125.829 148.052 129.005 145.427 131.287C143.965 132.558 143.681 132.607 143.639 131.196C143.628 128.836 142.45 129.069 141.343 131.809C139.964 134.917 140.992 139.355 144.062 143.795C146.588 147.458 146.695 147.431 148.269 146.062C149.132 145.312 150.108 144.924 150.304 145.149C150.532 145.411 151.327 145.115 152.217 144.473C153.627 143.445 153.594 143.408 150.744 143.384C145.598 143.447 145.64 141.37 150.761 140.144C152.225 139.859 153.393 139.238 153.385 138.851C153.481 137.977 149.9 138.325 147.752 139.337C144.391 141.074 145.133 139.047 148.867 135.998C152.854 132.861 154.089 130.8 151.051 132.454C150.101 132.951 147.976 134.14 146.3 134.938C143.454 136.359 143.454 136.359 147.301 133.213C150.178 130.843 150.983 129.88 150.301 129.551C149.798 129.199 149.545 128.826 149.807 128.598C151.157 127.425 150.679 123.167 149.082 121.33L147.314 119.444L148.121 122.495Z" fill="url(#paint4_linear_506_5081)"/>
<path d="M114.995 113.314C113.531 113.599 112.4 114.187 112.473 114.65C112.547 115.113 113.807 115.203 115.271 114.918C118.783 114.036 118.493 112.643 114.995 113.314Z" fill="url(#paint5_linear_506_5081)"/>
<path d="M124.208 126.04C123.833 126.366 124.405 127.778 125.498 129.263C126.722 130.897 127.584 131.662 127.937 131.158C128.496 130.211 124.957 125.388 124.208 126.04Z" fill="url(#paint6_linear_506_5081)"/>
<path d="M103.196 124.953C101.55 125.331 100.874 125.918 100.323 127.253C98.8946 131.062 100.92 148.455 103.239 152.561C104.558 154.837 108.231 156.713 111.156 156.671C113.802 156.61 114.891 158.624 114.099 162.407C113.686 164.28 113.496 166.025 113.724 166.287C114.386 166.897 122.62 166.453 122.669 165.752C122.769 165.336 121.429 164.855 119.854 164.71C117.476 164.473 117.144 164.17 117.465 163.101C117.976 161.34 118.464 160.916 119.604 161.242C120.117 161.454 120.914 161.156 121.476 160.667C122.413 159.853 122.241 159.805 120.531 159.58C117.56 159.267 116.508 157.68 119.284 157.768C121.008 157.783 121.336 157.63 120.749 156.955C120.326 156.467 119.475 156.022 118.914 155.983C118.326 155.836 117.001 155.145 115.956 154.473L114.047 153.105L116.806 152.418C121.502 151.233 120.839 150.097 115.958 150.918C113.395 151.302 110.714 151.921 109.924 152.148C108.296 152.773 106.396 151.199 107.559 150.188C107.934 149.862 110.446 149.192 113.168 148.537C119.776 147.203 118.34 146.082 111.369 147.074C104.248 148.195 103.198 146.607 109.71 144.632C112.231 143.823 114.615 142.935 114.99 142.609C116.265 141.501 113.453 141.444 109.921 142.606C106.001 143.775 104.525 143.742 104.315 142.213C104.252 141.61 105.03 141.065 106.568 140.715C113.055 139.091 114.148 137.022 107.901 138.24C104.043 139.027 103.595 138.889 103.317 136.827C103.115 135.686 103.593 135.402 105.955 134.863C110.113 133.816 110.467 132.258 106.301 132.917C102.518 133.639 101.23 132.454 104.594 131.176C107.228 130.268 107.977 129.617 107.293 128.83C107.032 128.53 105.965 128.667 104.907 129.192C103.882 129.754 102.848 129.929 102.62 129.666C101.968 128.916 103.221 127.103 104.934 126.272C106.942 125.251 105.848 124.293 103.196 124.953Z" fill="url(#paint7_linear_506_5081)"/>
<path d="M118.297 168.759C116.824 167.67 115.005 169.054 116.113 170.329C116.536 170.816 117.682 171.005 118.683 170.793C120.469 170.425 120.446 170.248 118.297 168.759Z" fill="url(#paint8_linear_506_5081)"/>
<path d="M117.972 172.463C117.297 173.05 117.125 173.989 117.549 174.476C117.973 174.964 118.737 175.089 119.224 174.666C119.712 174.242 119.841 173.406 119.647 172.653C119.318 171.82 118.759 171.779 117.972 172.463Z" fill="url(#paint9_linear_506_5081)"/>
<path d="M92.5419 167.587C91.6796 168.337 91.8451 168.522 93.0968 168.75C93.9329 168.879 94.773 168.939 94.8854 168.841C94.9979 168.743 94.7543 168.165 94.3306 167.678C93.9444 167.158 93.1043 167.098 92.5419 167.587Z" fill="url(#paint10_linear_506_5081)"/>
<path d="M78.4565 195.624C77.5063 196.121 76.2464 197.019 75.534 197.638C74.5593 198.485 74.9428 198.547 76.8841 197.978C78.3575 197.553 79.8455 196.918 80.3606 196.602C81.6402 195.423 80.2397 194.798 78.4565 195.624Z" fill="url(#paint11_linear_506_5081)"/>
<path d="M65.8847 211.29C64.6474 212.365 65.469 214.679 67.221 214.801C68.1321 214.865 68.2569 214.625 67.5725 213.838C67.0836 213.275 66.9568 212.53 67.2568 212.269C67.6317 211.943 67.6291 211.485 67.3357 211.147C67.0424 210.81 66.3721 210.866 65.8847 211.29Z" fill="url(#paint12_linear_506_5081)"/>
<path d="M247.369 93.5487C239.489 92.4343 239.238 92.5211 221.117 107.945C205.319 121.348 204.907 121.706 203.381 125.403C202.189 128.347 202.133 129.647 203.157 131.127C204.621 133.342 206.082 132.599 204.655 130.351C203.92 129.278 204.196 127.854 205.466 125.302C207.116 122.353 209.492 120.091 222.561 108.927C239.633 94.4155 240.073 94.165 247.743 95.2647C250.143 95.6791 252.055 95.5313 251.949 95.031C251.871 94.6382 249.77 93.9631 247.369 93.5487Z" fill="url(#paint13_linear_506_5081)"/>
<path d="M256.935 102.747C256.611 103.358 254.618 106.67 252.536 110.257C248.914 116.236 248.061 118.886 250.476 116.59C252.51 114.69 258.336 103.899 257.886 102.776C257.687 102.093 257.297 102.103 256.935 102.747Z" fill="url(#paint14_linear_506_5081)"/>
<path d="M235.116 112.233C233.742 113.756 232.702 115.516 232.653 116.217C232.562 117.02 233.19 116.606 234.654 114.807C237.737 111.008 238.142 108.747 235.116 112.233Z" fill="url(#paint15_linear_506_5081)"/>
<path d="M248.576 142.264C244.1 143.324 240.254 145.483 241.068 146.42C241.394 146.795 242.095 146.844 242.605 146.598C243.045 146.347 245.405 145.349 247.694 144.347C252.808 142.205 253.304 141.115 248.576 142.264Z" fill="url(#paint16_linear_506_5081)"/>
<path d="M250.987 147.016C250.159 147.275 249.453 147.823 249.461 148.211C249.383 149.333 250.667 149.072 251.606 147.729C252.46 146.591 252.46 146.591 250.987 147.016Z" fill="url(#paint17_linear_506_5081)"/>
<path d="M251.554 166.073C249.425 169.833 239.42 176.424 236.056 176.188C233.668 176.092 234.33 175.187 239.284 172.329C244.457 169.346 244.855 167.684 239.893 170.154C231.796 174.165 226.926 175.832 223.739 175.574C219.679 175.219 219.767 175.011 225.628 173.273C230.339 171.877 238.146 167.46 236.039 167.383C235.478 167.344 232.841 168.32 230.295 169.48C227.749 170.64 223.855 171.918 221.709 172.402C219.534 172.778 217.659 173.421 217.484 173.902C217.323 174.701 213.032 173.099 213.096 172.188C213.11 171.978 214.598 171.343 216.572 170.812C222.446 169.391 230.041 165.554 228.721 164.793C227.774 164.233 211.052 170.213 210.769 171.249C210.669 171.665 210.006 171.583 209.297 171.146C208.621 170.747 207.035 169.755 205.752 168.961L203.457 167.534L208.029 167.114C214.092 166.517 218.427 165.447 219.071 164.295C219.386 163.824 218.371 163.718 216.758 164.134C215.219 164.484 210.85 165.056 207.139 165.255C203.493 165.528 200.155 165.928 199.78 166.254C198.055 167.753 207.821 174.601 215.113 177.082C220.724 178.919 228.378 179.769 231.793 178.775C233.444 178.327 235.036 178.194 235.329 178.532C235.981 179.282 242.528 176.289 246.898 173.214C251.049 170.264 253.561 167.093 252.935 165.465C252.611 164.562 252.278 164.785 251.554 166.073Z" fill="url(#paint18_linear_506_5081)"/>
<path d="M214.075 137.109C211.162 137.468 209.635 138.665 210.26 140.293C210.849 141.954 212.579 142.358 212.855 140.934C213.007 140.275 213.806 139.449 214.741 139.162C218.348 137.935 217.918 136.532 214.075 137.109Z" fill="url(#paint19_linear_506_5081)"/>
<path d="M238.038 189.666C237.024 191.074 234.403 193.814 232.266 195.671C228.516 198.93 227.858 200.293 230.464 199.278C233.823 198.069 240.527 190.332 240.123 188.051C240 187.303 239.436 187.792 238.038 189.666Z" fill="url(#paint20_linear_506_5081)"/>
<path d="M186.295 139.531C181.397 139.576 180.12 140.225 174.41 145.847C170.561 149.522 169.621 150.865 170.457 150.994C171.331 151.09 172.264 152.32 173.314 154.435C174.609 157.061 175.664 158.119 178.873 160.069C182.758 162.418 190.954 164.047 192.454 162.744C193.504 161.831 192.315 160.693 190.939 161.23C188.768 162.065 180.545 157.825 177.471 154.441C174.538 151.067 173.7 147.912 176.112 149.172C177.913 150.108 178.905 149.048 177.292 147.949C176.215 147.24 176.328 146.615 178.232 144.565C180.606 141.843 183.5 140.71 187.302 141.222C188.629 141.385 189.835 141.259 190.135 140.998C191.217 140.123 189.571 139.513 186.295 139.531Z" fill="url(#paint21_linear_506_5081)"/>
<path d="M215.412 187.94C211.65 187.853 209.642 187.362 209.313 186.529C208.812 185.12 207.653 185.602 207.863 187.131C208.1 188.767 213.145 190.108 217.054 189.607C219.153 189.296 220.914 188.818 220.929 188.608C221.014 188.403 218.463 188.119 215.412 187.94Z" fill="url(#paint22_linear_506_5081)"/>
<path d="M228.915 209.449C227.525 210.197 224.531 211.221 222.352 211.667C217.558 212.74 216.98 213.966 221.392 213.817C224.743 213.734 228.21 211.972 230.208 209.576C231.39 208.286 231.144 208.302 228.915 209.449Z" fill="url(#paint23_linear_506_5081)"/>
<path d="M207.453 206.648C206.364 206.607 205.583 208.734 206.365 209.634C206.789 210.121 207.379 210.267 207.679 210.006C208.429 209.354 208.294 206.707 207.453 206.648Z" fill="url(#paint24_linear_506_5081)"/>
<path d="M169.61 177.275C168.598 176.641 166.188 174.326 164.125 172.104C161.149 168.832 160.251 168.1 159.501 168.752C158.151 169.925 159.788 173.702 162.747 176.198C165.468 178.571 170.679 180.625 171.728 179.712C172.403 179.125 172.142 178.826 169.61 177.275Z" fill="url(#paint25_linear_506_5081)"/>
<path d="M189.018 203.914C185.643 204.347 182.808 206.087 183.655 207.061C183.916 207.361 185.058 207.158 186.154 206.601C187.254 205.973 189.37 205.451 190.931 205.278C192.918 205.065 193.503 204.754 193.014 204.192C192.655 203.779 190.799 203.616 189.018 203.914Z" fill="url(#paint26_linear_506_5081)"/>
<path d="M193.332 208.654C190.523 208.528 189.544 208.919 190.391 209.894C190.978 210.568 195.766 210.092 195.788 209.284C195.948 209.013 194.808 208.687 193.332 208.654Z" fill="url(#paint27_linear_506_5081)"/>
<path d="M171.4 194.476C170.797 194.539 168.211 196.261 165.648 198.16C160.889 201.771 159.751 203.945 162.624 204.146C163.535 204.209 163.721 204.047 163.233 203.485C162.483 202.623 166.511 198.924 170.645 196.713C173.308 195.385 173.752 194.077 171.4 194.476Z" fill="url(#paint28_linear_506_5081)"/>
<path d="M178.229 217.175C177.153 217.452 175.768 217.604 175.287 217.429C174.806 217.255 173.137 218.442 171.585 219.989L168.75 222.783L174.525 220.264C180.299 217.745 182.059 216.281 178.229 217.175Z" fill="url(#paint29_linear_506_5081)"/>
<path d="M188.733 237.593C187.374 237.392 186.145 237.342 185.957 237.505C185.17 238.189 187.157 239.489 189.022 239.514C192.853 239.606 192.559 238.283 188.733 237.593Z" fill="url(#paint30_linear_506_5081)"/>
<path d="M186.821 244.324C184.496 246.345 178.751 248.443 174.965 248.706C171.464 248.919 170.428 250.61 173.709 250.522C178.985 250.609 186.932 247.255 187.894 244.576C188.413 243.203 188.273 243.193 186.821 244.324Z" fill="url(#paint31_linear_506_5081)"/>
<path d="M145.711 205.288C144.309 205.19 142.658 207.152 143.408 208.014C143.896 208.577 144.544 208.343 145.365 207.168C146.792 205.401 146.805 205.259 145.711 205.288Z" fill="url(#paint32_linear_506_5081)"/>
<path d="M151.841 218.394C151.318 218.322 150.146 219.012 149.096 219.924C147.822 221.032 147.607 221.547 148.519 221.611C149.219 221.66 150.433 220.935 151.235 220.04C152.037 219.145 152.294 218.461 151.841 218.394Z" fill="url(#paint33_linear_506_5081)"/>
<path d="M169.372 247.646C169.11 247.874 167.15 248.195 164.963 248.253C162.879 248.354 160.94 248.854 160.803 249.302C160.44 250.474 163.164 250.805 166.999 249.841C170.871 248.844 171.236 248.659 170.486 247.797C170.193 247.459 169.672 247.385 169.372 247.646Z" fill="url(#paint34_linear_506_5081)"/>
<path d="M160.927 246.035C158.65 246.369 155.467 246.568 153.855 246.456C151.154 246.302 149.003 247.843 151.104 248.518C152.103 248.835 163.037 247.558 164.81 246.872C167.341 245.922 164.948 245.436 160.927 246.035Z" fill="url(#paint35_linear_506_5081)"/>
<path d="M152.652 241.976C143.994 244.434 141.74 244.419 133.897 241.758C123.063 238.077 121.295 235.664 128.403 234.225C133.187 233.292 133.629 232.512 129.119 232.549C124.497 232.684 122.118 233.962 121.82 236.722C121.253 241.296 128.06 244.66 141.858 246.752C146.944 247.53 149.077 247.256 147.043 246.128C145.415 245.239 145.479 245.315 150.165 244.27C152.312 243.786 154.9 243.049 155.953 242.595C159.085 241.124 156.927 240.761 152.652 241.976Z" fill="url(#paint36_linear_506_5081)"/>
<path d="M116.408 206.869C115.206 208.44 112.361 211.375 109.999 213.428C105.275 217.534 105.583 219.176 110.45 215.537C114.052 212.866 119.043 206.422 118.823 205.033C118.666 204.248 117.994 204.832 116.408 206.869Z" fill="url(#paint37_linear_506_5081)"/>
<path d="M142.572 239.085C135.939 239.784 135.477 239.856 136.226 240.718C136.748 241.318 147.644 240.601 148.581 239.786C149.781 238.743 147.897 238.472 142.572 239.085Z" fill="url(#paint38_linear_506_5081)"/>
<path d="M154.634 253.942C154.147 254.365 154.144 254.895 154.592 255.032C155.18 255.179 155.693 254.93 155.83 254.482C156.274 253.175 155.759 252.964 154.634 253.942Z" fill="url(#paint39_linear_506_5081)"/>
<path d="M134.78 236.251C132.128 236.911 129.693 237.974 129.228 238.576C128.651 239.275 130.24 239.21 133.402 238.304C139.829 236.535 140.977 234.748 134.78 236.251Z" fill="url(#paint40_linear_506_5081)"/>
<path d="M122.265 227.381C120.338 227.739 118.812 228.408 118.955 228.876C119.152 230.087 123.68 229.31 124.802 227.874C125.491 227.077 124.902 226.932 122.265 227.381Z" fill="url(#paint41_linear_506_5081)"/>
<path d="M146.225 253.288C145.029 253.275 143.766 253.715 143.451 254.186C143.127 254.797 143.925 254.958 145.627 254.796C148.722 254.343 149.146 253.316 146.225 253.288Z" fill="url(#paint42_linear_506_5081)"/>
<path d="M103.693 206.997C103.556 207.445 103.614 208.118 103.94 208.493C104.201 208.793 104.729 208.795 105.029 208.534C105.404 208.208 105.239 207.562 104.782 207.037C104.396 206.517 103.938 206.521 103.693 206.997Z" fill="url(#paint43_linear_506_5081)"/>
<path d="M97.6335 219.106C95.6207 218.684 94.4046 219.412 94.6945 220.805C94.9469 222.232 97.7109 222.528 99.0606 221.354C100.34 220.176 99.9918 219.623 97.6335 219.106Z" fill="url(#paint44_linear_506_5081)"/>
<path d="M100.127 225.233C98.9308 225.22 97.9692 224.871 97.8536 224.511C97.8129 224.085 97.2191 224.009 96.5035 224.17C94.3324 225.005 95.6932 226.718 98.6139 226.746C102.838 226.76 104.277 225.312 100.127 225.233Z" fill="url(#paint45_linear_506_5081)"/>
<path d="M100.744 228.446C100.444 228.707 99.7851 228.556 99.3288 228.031C98.9051 227.543 98.0641 227.485 97.5767 227.908C96.3395 228.984 97.1019 229.703 99.5271 229.767C101.812 229.821 102.685 229.392 101.87 228.455C101.674 228.23 101.119 228.12 100.744 228.446Z" fill="url(#paint46_linear_506_5081)"/>
<path d="M101.899 232.12C99.4979 231.705 97.0878 232.945 98.0003 233.995C98.4892 234.557 103.924 234.374 104.674 233.722C105.349 233.136 104.234 232.459 101.899 232.12Z" fill="url(#paint47_linear_506_5081)"/>
<path d="M115.014 255.995C114.714 256.256 114.638 256.849 114.898 257.149C115.224 257.524 115.72 257.488 116.057 257.195C116.432 256.869 116.429 256.41 116.136 256.073C115.908 255.811 115.351 255.702 115.014 255.995Z" fill="url(#paint48_linear_506_5081)"/>
<path d="M86.017 224.007C85.7171 224.268 85.0305 224.009 84.6541 223.349C84.2077 222.684 83.4657 222.21 82.9653 222.316C81.2816 222.726 83.9512 225.343 86.1988 225.429C88.1709 225.426 88.2837 225.328 87.5341 224.466C87.0827 223.871 86.3544 223.714 86.017 224.007Z" fill="url(#paint49_linear_506_5081)"/>
<path d="M108.857 252.923C106.685 252.771 106.271 253.657 108.157 254.387C109.119 254.736 110.17 254.809 110.47 254.549C111.332 253.799 110.469 253.035 108.857 252.923Z" fill="url(#paint50_linear_506_5081)"/>
<path d="M83.6098 227.811C81.9001 227.585 80.4003 226.849 80.1315 226.161C79.8953 225.51 79.3355 225.47 78.4732 226.22C76.5236 227.915 78.1113 228.904 83.1247 229.22C88.1381 229.535 88.3362 228.704 83.6098 227.811Z" fill="url(#paint51_linear_506_5081)"/>
<path d="M86.0175 232.099C83.757 231.695 80.5712 230.91 78.9985 230.236C77.0852 229.398 76.2414 229.408 76.1777 230.319C76.1189 231.16 77.1309 231.794 79.6896 232.466C85.6009 234.041 90.5977 234.569 90.4185 233.605C90.2752 233.137 88.353 232.439 86.0175 232.099Z" fill="url(#paint52_linear_506_5081)"/>
<path d="M99.7149 250.21C97.3076 250.394 95.3375 250.856 95.3684 251.422C95.5573 252.245 103.567 251.996 104.542 251.149C105.596 250.166 103.899 249.799 99.7149 250.21Z" fill="url(#paint53_linear_506_5081)"/>
</g>
<defs>
<linearGradient id="paint0_linear_506_5081" x1="0" y1="157.454" x2="301.267" y2="207.767" gradientUnits="userSpaceOnUse">
<stop stop-color="#61F3F3"/>
<stop offset="1" stop-color="#00B8D9"/>
</linearGradient>
<linearGradient id="paint1_linear_506_5081" x1="178.426" y1="100.498" x2="193.434" y2="103.191" gradientUnits="userSpaceOnUse">
<stop stop-color="#61F3F3"/>
<stop offset="1" stop-color="#00B8D9"/>
</linearGradient>
<linearGradient id="paint2_linear_506_5081" x1="130.975" y1="88.9488" x2="193.278" y2="81.9474" gradientUnits="userSpaceOnUse">
<stop stop-color="#61F3F3"/>
<stop offset="1" stop-color="#00B8D9"/>
</linearGradient>
<linearGradient id="paint3_linear_506_5081" x1="170.523" y1="93.3476" x2="173.01" y2="93.8809" gradientUnits="userSpaceOnUse">
<stop stop-color="#61F3F3"/>
<stop offset="1" stop-color="#00B8D9"/>
</linearGradient>
<linearGradient id="paint4_linear_506_5081" x1="133.217" y1="131.699" x2="161.864" y2="131.337" gradientUnits="userSpaceOnUse">
<stop stop-color="#61F3F3"/>
<stop offset="1" stop-color="#00B8D9"/>
</linearGradient>
<linearGradient id="paint5_linear_506_5081" x1="112.326" y1="114.544" x2="117.163" y2="116.039" gradientUnits="userSpaceOnUse">
<stop stop-color="#61F3F3"/>
<stop offset="1" stop-color="#00B8D9"/>
</linearGradient>
<linearGradient id="paint6_linear_506_5081" x1="123.307" y1="126.823" x2="126.32" y2="125.375" gradientUnits="userSpaceOnUse">
<stop stop-color="#61F3F3"/>
<stop offset="1" stop-color="#00B8D9"/>
</linearGradient>
<linearGradient id="paint7_linear_506_5081" x1="88.3223" y1="137.066" x2="125.083" y2="126.905" gradientUnits="userSpaceOnUse">
<stop stop-color="#61F3F3"/>
<stop offset="1" stop-color="#00B8D9"/>
</linearGradient>
<linearGradient id="paint8_linear_506_5081" x1="115.336" y1="169.435" x2="120.052" y2="169.301" gradientUnits="userSpaceOnUse">
<stop stop-color="#61F3F3"/>
<stop offset="1" stop-color="#00B8D9"/>
</linearGradient>
<linearGradient id="paint9_linear_506_5081" x1="116.734" y1="173.539" x2="120.456" y2="174.075" gradientUnits="userSpaceOnUse">
<stop stop-color="#61F3F3"/>
<stop offset="1" stop-color="#00B8D9"/>
</linearGradient>
<linearGradient id="paint10_linear_506_5081" x1="91.8594" y1="168.18" x2="95.1511" y2="168.209" gradientUnits="userSpaceOnUse">
<stop stop-color="#61F3F3"/>
<stop offset="1" stop-color="#00B8D9"/>
</linearGradient>
<linearGradient id="paint11_linear_506_5081" x1="74.9238" y1="198.168" x2="78.8569" y2="200.242" gradientUnits="userSpaceOnUse">
<stop stop-color="#61F3F3"/>
<stop offset="1" stop-color="#00B8D9"/>
</linearGradient>
<linearGradient id="paint12_linear_506_5081" x1="64.4688" y1="212.52" x2="69.2962" y2="212.262" gradientUnits="userSpaceOnUse">
<stop stop-color="#61F3F3"/>
<stop offset="1" stop-color="#00B8D9"/>
</linearGradient>
<linearGradient id="paint13_linear_506_5081" x1="199.295" y1="126.76" x2="215.668" y2="140.012" gradientUnits="userSpaceOnUse">
<stop stop-color="#61F3F3"/>
<stop offset="1" stop-color="#00B8D9"/>
</linearGradient>
<linearGradient id="paint14_linear_506_5081" x1="245.213" y1="112.811" x2="255.63" y2="118.298" gradientUnits="userSpaceOnUse">
<stop stop-color="#61F3F3"/>
<stop offset="1" stop-color="#00B8D9"/>
</linearGradient>
<linearGradient id="paint15_linear_506_5081" x1="231.486" y1="115.174" x2="234.772" y2="117.34" gradientUnits="userSpaceOnUse">
<stop stop-color="#61F3F3"/>
<stop offset="1" stop-color="#00B8D9"/>
</linearGradient>
<linearGradient id="paint16_linear_506_5081" x1="240.697" y1="145.993" x2="247.951" y2="149.745" gradientUnits="userSpaceOnUse">
<stop stop-color="#61F3F3"/>
<stop offset="1" stop-color="#00B8D9"/>
</linearGradient>
<linearGradient id="paint17_linear_506_5081" x1="249.137" y1="148.234" x2="251.386" y2="149.342" gradientUnits="userSpaceOnUse">
<stop stop-color="#61F3F3"/>
<stop offset="1" stop-color="#00B8D9"/>
</linearGradient>
<linearGradient id="paint18_linear_506_5081" x1="199.168" y1="166.786" x2="253.351" y2="174.261" gradientUnits="userSpaceOnUse">
<stop stop-color="#61F3F3"/>
<stop offset="1" stop-color="#00B8D9"/>
</linearGradient>
<linearGradient id="paint19_linear_506_5081" x1="209.336" y1="139.532" x2="215.716" y2="142.001" gradientUnits="userSpaceOnUse">
<stop stop-color="#61F3F3"/>
<stop offset="1" stop-color="#00B8D9"/>
</linearGradient>
<linearGradient id="paint20_linear_506_5081" x1="227.744" y1="198.143" x2="232.593" y2="201.926" gradientUnits="userSpaceOnUse">
<stop stop-color="#61F3F3"/>
<stop offset="1" stop-color="#00B8D9"/>
</linearGradient>
<linearGradient id="paint21_linear_506_5081" x1="169.053" y1="150.259" x2="202.48" y2="151.101" gradientUnits="userSpaceOnUse">
<stop stop-color="#61F3F3"/>
<stop offset="1" stop-color="#00B8D9"/>
</linearGradient>
<linearGradient id="paint22_linear_506_5081" x1="207.225" y1="186.645" x2="220.947" y2="186.609" gradientUnits="userSpaceOnUse">
<stop stop-color="#61F3F3"/>
<stop offset="1" stop-color="#00B8D9"/>
</linearGradient>
<linearGradient id="paint23_linear_506_5081" x1="218.289" y1="213.257" x2="226.84" y2="217.541" gradientUnits="userSpaceOnUse">
<stop stop-color="#61F3F3"/>
<stop offset="1" stop-color="#00B8D9"/>
</linearGradient>
<linearGradient id="paint24_linear_506_5081" x1="205.195" y1="208.288" x2="209.311" y2="208.562" gradientUnits="userSpaceOnUse">
<stop stop-color="#61F3F3"/>
<stop offset="1" stop-color="#00B8D9"/>
</linearGradient>
<linearGradient id="paint25_linear_506_5081" x1="157.549" y1="170.448" x2="166.819" y2="166.513" gradientUnits="userSpaceOnUse">
<stop stop-color="#61F3F3"/>
<stop offset="1" stop-color="#00B8D9"/>
</linearGradient>
<linearGradient id="paint26_linear_506_5081" x1="183.193" y1="206.53" x2="191.61" y2="209.451" gradientUnits="userSpaceOnUse">
<stop stop-color="#61F3F3"/>
<stop offset="1" stop-color="#00B8D9"/>
</linearGradient>
<linearGradient id="paint27_linear_506_5081" x1="189.889" y1="209.315" x2="195.774" y2="210.159" gradientUnits="userSpaceOnUse">
<stop stop-color="#61F3F3"/>
<stop offset="1" stop-color="#00B8D9"/>
</linearGradient>
<linearGradient id="paint28_linear_506_5081" x1="160.352" y1="202.642" x2="165.187" y2="206.3" gradientUnits="userSpaceOnUse">
<stop stop-color="#61F3F3"/>
<stop offset="1" stop-color="#00B8D9"/>
</linearGradient>
<linearGradient id="paint29_linear_506_5081" x1="168.555" y1="222.558" x2="174.42" y2="226.332" gradientUnits="userSpaceOnUse">
<stop stop-color="#61F3F3"/>
<stop offset="1" stop-color="#00B8D9"/>
</linearGradient>
<linearGradient id="paint30_linear_506_5081" x1="185.568" y1="237.843" x2="191.837" y2="237.665" gradientUnits="userSpaceOnUse">
<stop stop-color="#61F3F3"/>
<stop offset="1" stop-color="#00B8D9"/>
</linearGradient>
<linearGradient id="paint31_linear_506_5081" x1="171.574" y1="249.88" x2="183.287" y2="255.589" gradientUnits="userSpaceOnUse">
<stop stop-color="#61F3F3"/>
<stop offset="1" stop-color="#00B8D9"/>
</linearGradient>
<linearGradient id="paint32_linear_506_5081" x1="142.678" y1="207.174" x2="145.845" y2="208.553" gradientUnits="userSpaceOnUse">
<stop stop-color="#61F3F3"/>
<stop offset="1" stop-color="#00B8D9"/>
</linearGradient>
<linearGradient id="paint33_linear_506_5081" x1="147.727" y1="221.115" x2="150.216" y2="222.66" gradientUnits="userSpaceOnUse">
<stop stop-color="#61F3F3"/>
<stop offset="1" stop-color="#00B8D9"/>
</linearGradient>
<linearGradient id="paint34_linear_506_5081" x1="160.557" y1="249.462" x2="170.108" y2="251.847" gradientUnits="userSpaceOnUse">
<stop stop-color="#61F3F3"/>
<stop offset="1" stop-color="#00B8D9"/>
</linearGradient>
<linearGradient id="paint35_linear_506_5081" x1="150.043" y1="247.721" x2="164.741" y2="251.219" gradientUnits="userSpaceOnUse">
<stop stop-color="#61F3F3"/>
<stop offset="1" stop-color="#00B8D9"/>
</linearGradient>
<linearGradient id="paint36_linear_506_5081" x1="120.059" y1="236.817" x2="157.595" y2="237.317" gradientUnits="userSpaceOnUse">
<stop stop-color="#61F3F3"/>
<stop offset="1" stop-color="#00B8D9"/>
</linearGradient>
<linearGradient id="paint37_linear_506_5081" x1="105.379" y1="215.992" x2="110.014" y2="219.762" gradientUnits="userSpaceOnUse">
<stop stop-color="#61F3F3"/>
<stop offset="1" stop-color="#00B8D9"/>
</linearGradient>
<linearGradient id="paint38_linear_506_5081" x1="135.834" y1="240.267" x2="148.327" y2="242.911" gradientUnits="userSpaceOnUse">
<stop stop-color="#61F3F3"/>
<stop offset="1" stop-color="#00B8D9"/>
</linearGradient>
<linearGradient id="paint39_linear_506_5081" x1="154.01" y1="254.485" x2="156.14" y2="255.152" gradientUnits="userSpaceOnUse">
<stop stop-color="#61F3F3"/>
<stop offset="1" stop-color="#00B8D9"/>
</linearGradient>
<linearGradient id="paint40_linear_506_5081" x1="129.002" y1="238.749" x2="136.341" y2="241.956" gradientUnits="userSpaceOnUse">
<stop stop-color="#61F3F3"/>
<stop offset="1" stop-color="#00B8D9"/>
</linearGradient>
<linearGradient id="paint41_linear_506_5081" x1="118.793" y1="228.797" x2="124.166" y2="230.657" gradientUnits="userSpaceOnUse">
<stop stop-color="#61F3F3"/>
<stop offset="1" stop-color="#00B8D9"/>
</linearGradient>
<linearGradient id="paint42_linear_506_5081" x1="143.223" y1="254.349" x2="147.888" y2="255.491" gradientUnits="userSpaceOnUse">
<stop stop-color="#61F3F3"/>
<stop offset="1" stop-color="#00B8D9"/>
</linearGradient>
<linearGradient id="paint43_linear_506_5081" x1="103.053" y1="207.473" x2="105.588" y2="207.307" gradientUnits="userSpaceOnUse">
<stop stop-color="#61F3F3"/>
<stop offset="1" stop-color="#00B8D9"/>
</linearGradient>
<linearGradient id="paint44_linear_506_5081" x1="94.0547" y1="220.323" x2="100.041" y2="221.051" gradientUnits="userSpaceOnUse">
<stop stop-color="#61F3F3"/>
<stop offset="1" stop-color="#00B8D9"/>
</linearGradient>
<linearGradient id="paint45_linear_506_5081" x1="95.1191" y1="225.152" x2="102.713" y2="225.5" gradientUnits="userSpaceOnUse">
<stop stop-color="#61F3F3"/>
<stop offset="1" stop-color="#00B8D9"/>
</linearGradient>
<linearGradient id="paint46_linear_506_5081" x1="96.6992" y1="228.671" x2="102.387" y2="229.086" gradientUnits="userSpaceOnUse">
<stop stop-color="#61F3F3"/>
<stop offset="1" stop-color="#00B8D9"/>
</linearGradient>
<linearGradient id="paint47_linear_506_5081" x1="97.5098" y1="233.43" x2="104.877" y2="234.482" gradientUnits="userSpaceOnUse">
<stop stop-color="#61F3F3"/>
<stop offset="1" stop-color="#00B8D9"/>
</linearGradient>
<linearGradient id="paint48_linear_506_5081" x1="114.377" y1="256.549" x2="116.651" y2="256.743" gradientUnits="userSpaceOnUse">
<stop stop-color="#61F3F3"/>
<stop offset="1" stop-color="#00B8D9"/>
</linearGradient>
<linearGradient id="paint49_linear_506_5081" x1="82.1328" y1="222.894" x2="87.3587" y2="221.755" gradientUnits="userSpaceOnUse">
<stop stop-color="#61F3F3"/>
<stop offset="1" stop-color="#00B8D9"/>
</linearGradient>
<linearGradient id="paint50_linear_506_5081" x1="106.814" y1="253.432" x2="111.062" y2="253.429" gradientUnits="userSpaceOnUse">
<stop stop-color="#61F3F3"/>
<stop offset="1" stop-color="#00B8D9"/>
</linearGradient>
<linearGradient id="paint51_linear_506_5081" x1="77.2617" y1="227.273" x2="87.0174" y2="226.987" gradientUnits="userSpaceOnUse">
<stop stop-color="#61F3F3"/>
<stop offset="1" stop-color="#00B8D9"/>
</linearGradient>
<linearGradient id="paint52_linear_506_5081" x1="75.7988" y1="230.304" x2="90.1205" y2="229.072" gradientUnits="userSpaceOnUse">
<stop stop-color="#61F3F3"/>
<stop offset="1" stop-color="#00B8D9"/>
</linearGradient>
<linearGradient id="paint53_linear_506_5081" x1="95.2812" y1="251.349" x2="104.502" y2="253.243" gradientUnits="userSpaceOnUse">
<stop stop-color="#61F3F3"/>
<stop offset="1" stop-color="#00B8D9"/>
</linearGradient>
</defs>
</svg>
