<svg width="281" height="274" viewBox="0 0 281 274" fill="none" xmlns="http://www.w3.org/2000/svg">
<g opacity="0.5">
<path d="M41.6126 68.6989C30.7084 87.3785 29.3227 113.207 38.2386 135.299C43.9228 149.283 50.5872 158.604 62.7584 169.45C82.5294 187.067 102.891 194.242 128.616 192.869C138.614 192.347 139.442 192.572 149.948 198.038C155.823 201.224 163.383 204.475 166.725 205.095C171.504 206.175 174.308 207.854 180.506 212.864C187.23 218.548 187.992 219.535 187.24 221.53C185.934 224.261 189.073 228.904 192.22 228.94C193.573 228.916 195.583 228.041 196.55 226.956C197.874 225.47 199.382 225.276 201.338 226.301C203.18 227.225 206.047 227.114 208.908 225.974C213.245 224.098 213.407 224.139 212.031 226.604C210.024 230.351 211.758 232.204 215.447 230.365C223.238 226.338 235.886 208.7 240.937 194.748C244.795 184.552 244.338 179.429 239.385 175.324C237.398 173.757 235.055 170.748 234.003 168.477C232.463 165.259 231.72 164.597 229.387 164.569C227.97 164.434 226.49 165.166 226.165 166.106C225.413 168.101 214.302 160.558 213.81 157.659C213.69 156.528 210.946 152.237 207.722 148.032C198.166 135.518 196.573 131.331 195.238 116.609C191.351 72.653 155.718 37.5186 111.275 33.8986C82.9557 31.6267 55.3445 45.4655 41.6126 68.6989ZM68.4605 52.9498C88.4016 40.58 113.821 39.5498 138.062 50.0795C151.58 56.077 166.988 69.4985 174.473 81.8065C181.907 94.1716 185.267 103.521 186.731 116.718C187.435 123.291 188.677 130.753 189.532 133.36C190.937 137.995 202.831 154.335 208.431 159.325C209.917 160.649 210.566 162.56 210.335 164.199C209.492 167.446 200.518 182.003 199.114 182.084C198.033 182.146 170.258 153.5 150.193 131.726C143.369 124.313 135.924 116.448 133.581 114.36C131.238 112.273 128.591 108.683 127.589 106.356C126.018 102.598 125.561 102.191 120.878 100.888C118.178 100.122 114.981 100.144 113.893 101.02C112.806 101.896 110.152 102.914 108.168 103.3C104.195 103.962 100.325 107.382 100.888 109.627C101.091 110.32 99.8385 112.074 98.0315 113.642C96.1673 115.159 94.9109 116.909 95.2402 117.92C95.4551 118.83 94.9995 120.269 94.1849 121.183C93.4211 122.04 92.7622 125.656 92.739 129.018C92.73 136.391 95.742 139.793 102.981 140.298C106.686 140.626 109.642 142.03 115.877 146.766C131.118 158.194 150.867 171.691 166.611 181.518C175.28 187.09 183.224 192.323 184.367 193.341C187.567 196.193 183.859 198.63 176.544 198.672C167.55 198.756 163.358 197.482 155.045 192.431C145.829 186.782 136.536 184.55 123.316 184.661C111.296 184.92 97.9864 181.568 85.9872 175.591C69.2431 167.232 48.8185 144.829 48.5514 134.545C48.5101 131.945 49.9054 124.167 51.7191 117.07C53.482 110.03 54.2478 104.561 53.402 104.935C52.7214 105.354 50.6418 111.599 48.828 118.697L45.5723 131.787L43.8165 125.815C40.8988 115.629 39.8128 106.153 41.6238 106.536C42.8758 106.627 43.4386 106.001 44.0072 103.637C45.0041 99.2969 51.8455 85.4032 54.0859 82.889C55.1552 81.689 55.5628 80.3094 55.1057 79.9021C54.5342 79.3929 53.4267 79.9438 52.4592 81.0295C50.0152 83.7723 43.7456 96.3303 42.2334 101.134L41.1669 105.207L41.0747 99.7937C41.1782 93.12 43.7493 83.212 47.3045 76.2311C50.9428 68.8118 61.3427 57.3712 68.4605 52.9498ZM107.413 106.214C108.901 105.695 110.936 106.176 112.25 107.347C114.879 109.689 117.747 107.734 115.64 105.037C114.466 103.478 114.571 103.367 117.489 103.199C120.737 103.12 125.253 106.221 124.449 108.273C124.156 108.832 128.418 114.167 133.953 119.92C139.33 125.736 148.396 135.352 154.052 141.315C159.657 147.335 171.252 159.512 180.006 168.44C188.595 177.324 195.767 185.15 195.855 185.741C195.896 188.34 192.822 186.728 184.865 180.356C177.582 174.379 176.528 172.927 175.661 169.182C174.815 164.84 174.243 164.33 157.016 150.414C141.656 137.855 139.055 136.05 136.651 136.676C134.185 137.144 132.105 135.803 121.438 126.606C113.571 119.903 109.253 115.542 109.711 115.028C110.22 114.456 109.241 113.482 107.724 112.539C104.986 111.125 103.397 108.89 104.314 107.861C104.67 107.461 106.039 106.836 107.413 106.214ZM102.09 115.413C105.063 116.217 116.139 124.036 116.22 125.441C116.251 125.981 120.098 129.717 124.892 133.886C132.987 140.792 133.453 141.31 131.875 143.081C130.195 144.967 130.492 145.437 141.522 154.343C163.809 172.358 169.357 176.481 171.271 175.828C172.434 175.328 176.366 177.703 182.824 182.535C191.504 189.245 192.433 190.278 191.211 191.649C190.447 192.506 189.316 192.626 188.687 192.066C188.116 191.556 178.873 185.473 168.292 178.71C157.712 171.947 139.723 159.813 128.419 151.791C117.064 143.826 107.264 137.451 106.743 137.806C105.267 138.542 98.2673 136.61 96.3816 134.93C93.9245 132.74 96.3243 132.008 99.6334 133.932C103.952 136.448 106.998 134.753 105.191 130.683C104.184 128.248 103.012 127.614 100 127.083C95.9584 126.557 94.5992 124.628 96.585 122.399C97.2469 121.656 98.6108 121.847 99.525 122.661C101.868 124.749 105.34 122.923 104.06 120.449C103.457 119.399 101.822 118.25 100.297 118.121C98.1048 117.705 97.8607 117.283 98.879 116.14C99.2677 115.359 100.825 115.106 102.09 115.413ZM102.815 130.821C103.273 131.229 102.918 131.63 102.174 131.89C101.481 132.092 100.045 131.634 99.1884 130.87C97.7598 129.597 97.911 129.424 99.83 129.801C100.98 130.006 102.415 130.465 102.815 130.821ZM137.694 144.371C139.148 145.154 144.498 149.614 149.59 154.254L158.863 162.722L150.306 156.327C145.549 152.806 139.951 148.74 137.595 147.358C133.06 144.855 133.12 142.141 137.694 144.371ZM144.612 145C145.945 146.495 144.716 145.81 142.202 143.57C139.573 141.228 138.583 140.038 139.93 140.828C141.34 141.777 143.393 143.606 144.612 145ZM171.559 165.731C172.218 166.831 171.55 166.544 170.007 165.169C168.407 163.743 167.933 163.013 168.701 163.185C169.648 163.618 170.962 164.79 171.559 165.731ZM186.732 201.394C189.715 199.542 193.949 195.934 196.139 193.477C200.671 188.392 204.325 187.855 200.27 192.751C198.857 194.567 194.438 199.65 190.53 204.266L183.309 212.594L180.112 209.745C177.483 207.403 177.391 206.808 179.127 205.895C180.291 205.394 183.761 203.463 186.732 201.394ZM221.132 169.002C224.618 172.108 224.635 172.431 222.139 176.152C220.693 178.35 217.332 183.966 214.778 188.558C208.485 199.763 197.084 211.747 192.431 211.906C189.291 211.979 189.392 211.864 195.208 206.487C202.939 199.537 210.699 186.461 213.954 175.215C215.218 170.805 216.453 166.883 216.86 166.426C217.217 166.026 219.075 167.169 221.132 169.002ZM235.472 177.064C237.866 178.173 239.83 179.307 239.779 179.365C239.791 179.581 237.123 184.071 233.748 189.47C226.423 201.601 211.429 218.891 207.418 219.827C204.951 220.294 205.581 219.011 212.711 210.089C221.814 198.723 227.543 188.144 228.116 182.094C228.689 176.044 230.46 174.751 235.472 177.064ZM200.666 214.631C203.127 213.134 203.09 213.408 200.384 217.25C198.073 220.419 196.934 221.352 196.077 220.588C194.712 219.475 196.378 217.371 200.666 214.631Z" fill="#77ED8B"/>
<path d="M48.0957 100.524C45.4248 106.857 42.5633 117.429 43.249 118.04C43.7062 118.448 45.1194 115.709 46.5349 112.05C47.7343 108.403 49.3844 104.132 49.9965 102.525C50.6086 100.918 52.4014 98.1072 53.9799 96.3358C55.5583 94.5644 56.3733 92.7277 55.9162 92.3203C54.8939 91.5119 49.32 97.3091 48.0957 100.524Z" fill="#77ED8B"/>
<path d="M52.8167 125.944C51.2699 132.972 51.8192 143.508 53.6624 143.51C54.2027 143.479 54.5509 140.099 54.4671 135.821C54.3958 131.759 54.7906 126.37 55.4735 124.108C56.0421 121.745 56.1292 119.465 55.615 119.006C54.415 117.937 54.4539 117.664 52.8167 125.944Z" fill="#77ED8B"/>
<path d="M115.781 54.943C116.352 55.4522 117.283 55.5637 117.862 55.2593C118.333 54.9612 124.002 56.5281 130.368 58.8177C140.775 62.555 142.459 63.5429 151.201 71.3333C161.956 81.1219 165.505 87.1541 169.37 102.489C170.692 107.563 172.177 111.757 172.831 111.828C175.203 111.583 173.101 98.6385 168.988 88.4131C164.616 77.4437 164.45 77.2953 154.577 68.7027C144.805 59.9957 144.356 59.8001 131.439 55.7737C123.599 53.298 117.679 52.1241 116.693 52.8856C115.599 53.6533 115.324 54.5357 115.781 54.943Z" fill="#77ED8B"/>
<path d="M57.1785 136.704C57.6984 142.908 59.349 149.915 61.0423 152.961C63.1096 156.854 63.4227 153.75 61.6071 146.699C60.6776 142.795 59.6798 137.703 59.2758 135.395C58.1013 129.12 56.5255 130.074 57.1785 136.704Z" fill="#77ED8B"/>
<path d="M64.4142 149.405C65.0145 152.298 66.644 156.108 68.2179 158.023L70.9062 161.444L68.8659 155.218C67.6942 151.816 66.3757 147.668 65.8824 145.691C64.7005 140.229 63.2708 143.671 64.4142 149.405Z" fill="#77ED8B"/>
<path d="M73.0774 161.536C74.2876 164.664 77.0966 167.27 77.3784 165.573C77.5905 163.609 73.9053 157.045 72.9888 158.074C72.5814 158.531 72.6723 160.149 73.0774 161.536Z" fill="#77ED8B"/>
<path d="M82.8884 169.046C83.4265 170.858 94.6285 177.149 95.545 176.121C96.4615 175.092 94.7626 173.783 88.1121 170.318C84.9869 168.763 82.6225 168.194 82.8884 169.046Z" fill="#77ED8B"/>
<path d="M175.59 123.913C176.312 126.094 177.647 128.616 178.561 129.431C180.504 131.162 180.425 129.759 178.165 122.517C177.077 118.677 176.256 117.638 175.441 118.552C174.779 119.295 174.913 121.567 175.59 123.913Z" fill="#77ED8B"/>
<path d="M182.746 137.158C185.354 141.02 190.417 145.121 191.333 144.093C191.843 143.521 191.122 142.264 189.922 141.195C188.722 140.125 186.631 137.75 185.286 136.039C182.475 132.406 180.361 133.393 182.746 137.158Z" fill="#77ED8B"/>
<path d="M194.709 152.839C195.267 154.054 195.922 154.125 196.362 153.287C197.178 151.451 195.669 148.773 194.548 150.031C194.084 150.437 194.106 151.79 194.709 152.839Z" fill="#77ED8B"/>
</g>
</svg>
